<svg width="525" height="525" viewBox="0 0 525 525" fill="none" xmlns="http://www.w3.org/2000/svg">
<path d="M56.001 429H95.002V468.002C95.002 497.229 118.775 521.002 148.002 521.002H468.002C497.229 521.002 521.002 497.229 521.002 468.002V148.002C521.002 118.775 497.229 95.002 468.002 95.002H429.001V55.9999C429.001 26.7731 405.228 2.99994 376.001 2.99994H56.001C26.7742 2.99994 3.00098 26.7731 3.00098 55.9999V376.001C2.99994 405.228 26.7733 429 56.001 429ZM468.002 121.002C482.887 121.002 495.002 133.116 495.002 148.002V468.002C495.002 482.887 482.887 495.002 468.002 495.002H148.002C133.117 495.002 121.002 482.887 121.002 468.002V148.002C121.002 133.117 133.117 121.002 148.002 121.002H468.002ZM29.001 55.9999C29.001 41.1148 41.1159 28.9999 56.001 28.9999H376.001C390.886 28.9999 403.001 41.1148 403.001 55.9999V95.002H148.002C118.775 95.002 95.002 118.775 95.002 148.002V403H56.001C41.1159 403 29.001 390.885 29.001 376V55.9999Z" fill="white" stroke="white" stroke-width="6"/>
<path d="M413.045 295.155L413.045 295.154C410.149 284.436 403.246 275.474 393.638 269.954C393.638 269.953 393.637 269.953 393.637 269.953L337.658 237.635C337.083 237.262 336.496 236.9 335.899 236.557C335.898 236.556 335.898 236.556 335.897 236.556L280.071 204.322C273.272 199.857 265.374 197.5 257.206 197.5C234.207 197.5 215.5 216.206 215.5 239.206V372.792C215.5 373.324 215.531 373.847 215.588 374.359C215.843 381.127 217.761 387.768 221.173 393.66L221.173 393.661C228.597 406.48 242.41 414.437 257.234 414.437C264.532 414.437 271.739 412.497 278.063 408.833L335.902 375.438L335.907 375.436C336.264 375.229 336.611 375.008 336.948 374.771L393.216 342.288C399.761 338.628 405.199 333.248 408.953 326.721L408.953 326.72C414.485 317.093 415.939 305.873 413.045 295.155ZM379.363 318.058L379.354 318.064L321.927 351.217C321.926 351.217 321.926 351.217 321.925 351.217C321.56 351.428 321.21 351.651 320.876 351.886L264.092 384.672L264.089 384.673C261.992 385.888 259.619 386.527 257.234 386.527C252.338 386.527 247.771 383.897 245.326 379.674C244.109 377.572 243.47 375.196 243.472 372.806V372.804C243.472 372.376 243.453 371.947 243.413 371.518V241.706H243.414V239.206C243.414 231.602 249.604 225.411 257.208 225.411C259.98 225.411 262.636 226.223 264.9 227.752L264.905 227.755C265.171 227.934 265.445 228.106 265.727 228.27L265.733 228.274L321.971 260.744L321.971 260.744C322.193 260.872 322.417 261.014 322.66 261.175L322.669 261.181C322.894 261.328 323.126 261.473 323.365 261.612L323.372 261.616L379.708 294.14L379.712 294.142C382.883 295.964 385.146 298.901 386.1 302.433C387.053 305.966 386.577 309.643 384.756 312.811C383.51 314.979 381.712 316.752 379.562 317.946C379.497 317.982 379.43 318.02 379.363 318.058Z" fill="white" stroke="white" stroke-width="5"/>
</svg>
