<svg width="512" height="512" viewBox="0 0 512 512" fill="none" xmlns="http://www.w3.org/2000/svg">
<path d="M480 96H128C110.327 96 96 110.327 96 128V480C96 497.673 110.327 512 128 512H480C497.673 512 512 497.673 512 480V128C512 110.327 497.673 96 480 96ZM480 480H128V128H480V480Z" fill="white"/>
<path d="M32 32H384V64H416V32C416 14.327 401.673 0 384 0H32C14.327 0 0 14.327 0 32V384C0 401.673 14.327 416 32 416H64V384H32V32Z" fill="white"/>
<path d="M176 400H432C440.836 400.051 448.041 392.93 448.093 384.093C448.118 379.794 446.412 375.667 443.36 372.64L379.36 308.64C373.119 302.436 363.041 302.436 356.8 308.64L336 329.44L283.36 276.8C277.119 270.596 267.041 270.596 260.8 276.8L164.8 372.8C158.614 379.11 158.713 389.24 165.023 395.426C167.959 398.304 171.889 399.942 176 400Z" fill="white"/>
<path d="M384 272C401.673 272 416 257.673 416 240C416 222.327 401.673 208 384 208C366.327 208 352 222.327 352 240C352 257.673 366.327 272 384 272Z" fill="white"/>
</svg>
